<?xml version="1.0" encoding="UTF-8" standalone="no"?>
<!-- Creator: CorelDRAW -->
<svg
   xmlns:dc="http://purl.org/dc/elements/1.1/"
   xmlns:cc="http://creativecommons.org/ns#"
   xmlns:rdf="http://www.w3.org/1999/02/22-rdf-syntax-ns#"
   xmlns:svg="http://www.w3.org/2000/svg"
   xmlns="http://www.w3.org/2000/svg"
   xmlns:xlink="http://www.w3.org/1999/xlink"
   xmlns:sodipodi="http://sodipodi.sourceforge.net/DTD/sodipodi-0.dtd"
   xmlns:inkscape="http://www.inkscape.org/namespaces/inkscape"
   xml:space="preserve"
   width="21.6746mm"
   height="21.6746mm"
   style="shape-rendering:geometricPrecision; text-rendering:geometricPrecision; image-rendering:optimizeQuality; fill-rule:evenodd; clip-rule:evenodd"
   viewBox="0 0 21.6746 21.6746"
   id="svg2673"
   sodipodi:version="0.32"
   inkscape:version="0.46"
   sodipodi:docname="zKiosk.svg"
   inkscape:output_extension="org.inkscape.output.svg.inkscape"><metadata
   id="metadata2777"><rdf:RDF><cc:Work
       rdf:about=""><dc:format>image/svg+xml</dc:format><dc:type
         rdf:resource="http://purl.org/dc/dcmitype/StillImage" /></cc:Work></rdf:RDF></metadata><sodipodi:namedview
   inkscape:window-height="999"
   inkscape:window-width="1680"
   inkscape:pageshadow="2"
   inkscape:pageopacity="0.0"
   guidetolerance="10.0"
   gridtolerance="10.0"
   objecttolerance="10.0"
   borderopacity="1.0"
   bordercolor="#666666"
   pagecolor="#ffffff"
   id="base"
   showgrid="false"
   inkscape:zoom="4.2537022"
   inkscape:cx="8.0623004"
   inkscape:cy="17.11443"
   inkscape:window-x="-6"
   inkscape:window-y="24"
   inkscape:current-layer="svg2673" />
 <defs
   id="defs2675"><inkscape:perspective
   sodipodi:type="inkscape:persp3d"
   inkscape:vp_x="0 : 38.399883 : 1"
   inkscape:vp_y="0 : 1000 : 0"
   inkscape:vp_z="76.799767 : 38.399883 : 1"
   inkscape:persp3d-origin="38.399883 : 25.599922 : 1"
   id="perspective2779" />
  <style
   type="text/css"
   id="style2677">
   
    .str3 {stroke:black;stroke-width:0.0762}
    .str1 {stroke:black;stroke-width:0.0847}
    .str2 {stroke:black;stroke-width:0.1693}
    .str0 {stroke:black;stroke-width:0.2}
    .fil2 {fill:none}
    .fil4 {fill:#CCE7D4}
    .fil8 {fill:black}
    .fil6 {fill:#990000}
    .fil0 {fill:#996633}
    .fil5 {fill:red}
    .fil9 {fill:#FFCCCC}
    .fil7 {fill:white}
    .fil1 {fill:black;fill-opacity:0.129412}
    .fil17 {fill:black;fill-opacity:0.160784}
    .fil3 {fill:black;fill-opacity:0.200000}
    .fil10 {fill:url(#id0)}
    .fil15 {fill:url(#id1)}
    .fil12 {fill:url(#id2)}
    .fil13 {fill:url(#id3)}
    .fil14 {fill:url(#id4)}
    .fil11 {fill:url(#id5)}
    .fil16 {fill:url(#id6)}
   
  </style>
  <linearGradient
   id="id0"
   gradientUnits="userSpaceOnUse"
   x1="10.1222"
   y1="15.0275"
   x2="10.1222"
   y2="15.6107">
   <stop
   offset="0"
   style="stop-color:#FFFFCC"
   id="stop2680" />
   <stop
   offset="1"
   style="stop-color:#FFCC99"
   id="stop2682" />
  </linearGradient>
  <linearGradient
   id="id1"
   gradientUnits="userSpaceOnUse"
   xlink:href="#id0"
   x1="11.8256"
   y1="15.0472"
   x2="11.8256"
   y2="15.6724">
  </linearGradient>
  <linearGradient
   id="id2"
   gradientUnits="userSpaceOnUse"
   xlink:href="#id0"
   x1="11.5176"
   y1="16.0723"
   x2="11.5176"
   y2="16.4897">
  </linearGradient>
  <linearGradient
   id="id3"
   gradientUnits="userSpaceOnUse"
   xlink:href="#id0"
   x1="9.1"
   y1="16.1742"
   x2="9.1"
   y2="16.5681">
  </linearGradient>
  <linearGradient
   id="id4"
   gradientUnits="userSpaceOnUse"
   xlink:href="#id0"
   x1="8.9955"
   y1="15.0421"
   x2="8.9955"
   y2="15.6568">
  </linearGradient>
  <linearGradient
   id="id5"
   gradientUnits="userSpaceOnUse"
   xlink:href="#id0"
   x1="10.1305"
   y1="16.0839"
   x2="10.1305"
   y2="16.5265">
  </linearGradient>
  <linearGradient
   id="id6"
   gradientUnits="userSpaceOnUse"
   xlink:href="#id0"
   x1="12.9248"
   y1="15.2684"
   x2="12.9248"
   y2="15.8514">
  </linearGradient>
 
  <metadata
   id="CorelCorpID_0Corel-Layer" />
  
  
  
  
  
  
  
  
  
  
  
  
  
  
  
  
  
  
  
  
  
  
  
  
  
  
  
  
  
  
  
  
  
  
  
  
  
  
  
  
  
  
 <linearGradient
   inkscape:collect="always"
   xlink:href="#id0"
   id="linearGradient2792"
   gradientUnits="userSpaceOnUse"
   x1="12.9248"
   y1="15.2684"
   x2="12.9248"
   y2="15.8514" /><linearGradient
   inkscape:collect="always"
   xlink:href="#id0"
   id="linearGradient2795"
   gradientUnits="userSpaceOnUse"
   x1="11.8256"
   y1="15.0472"
   x2="11.8256"
   y2="15.6724" /><linearGradient
   inkscape:collect="always"
   xlink:href="#id0"
   id="linearGradient2798"
   gradientUnits="userSpaceOnUse"
   x1="8.9955"
   y1="15.0421"
   x2="8.9955"
   y2="15.6568" /><linearGradient
   inkscape:collect="always"
   xlink:href="#id0"
   id="linearGradient2801"
   gradientUnits="userSpaceOnUse"
   x1="9.1"
   y1="16.1742"
   x2="9.1"
   y2="16.5681" /><linearGradient
   inkscape:collect="always"
   xlink:href="#id0"
   id="linearGradient2804"
   gradientUnits="userSpaceOnUse"
   x1="11.5176"
   y1="16.0723"
   x2="11.5176"
   y2="16.4897" /><linearGradient
   inkscape:collect="always"
   xlink:href="#id0"
   id="linearGradient2807"
   gradientUnits="userSpaceOnUse"
   x1="11.5176"
   y1="16.0723"
   x2="11.5176"
   y2="16.4897" /><linearGradient
   inkscape:collect="always"
   xlink:href="#id0"
   id="linearGradient2810"
   gradientUnits="userSpaceOnUse"
   x1="10.1305"
   y1="16.0839"
   x2="10.1305"
   y2="16.5265" /><linearGradient
   inkscape:collect="always"
   xlink:href="#id0"
   id="linearGradient2813"
   gradientUnits="userSpaceOnUse"
   x1="10.1222"
   y1="15.0275"
   x2="10.1222"
   y2="15.6107" /><filter
   inkscape:collect="always"
   id="filter3614"
   x="-0.087469156"
   width="1.1749383"
   y="-0.19105608"
   height="1.3821122"><feGaussianBlur
     inkscape:collect="always"
     stdDeviation="0.05465"
     id="feGaussianBlur3616" /></filter><filter
   inkscape:collect="always"
   id="filter3646"
   x="-0.060068035"
   width="1.1201361"
   y="-0.10715124"
   height="1.2143025"><feGaussianBlur
     inkscape:collect="always"
     stdDeviation="0.082637047"
     id="feGaussianBlur3648" /></filter><filter
   inkscape:collect="always"
   id="filter3782"><feGaussianBlur
     inkscape:collect="always"
     stdDeviation="0.018622172"
     id="feGaussianBlur3784" /></filter><filter
   inkscape:collect="always"
   id="filter3788"
   x="-0.11995197"
   width="1.2399039"
   y="-0.12005301"
   height="1.240106"><feGaussianBlur
     inkscape:collect="always"
     stdDeviation="0.062004966"
     id="feGaussianBlur3790" /></filter><filter
   inkscape:collect="always"
   id="filter3838"
   x="-0.13033751"
   width="1.260675"
   y="-0.092198782"
   height="1.1843976"><feGaussianBlur
     inkscape:collect="always"
     stdDeviation="2.6685248"
     id="feGaussianBlur3840" /></filter></defs>
 <path
   style="fill:#000000;fill-opacity:1;fill-rule:evenodd;stroke:#000000;stroke-width:0.20000000000000001;filter:url(#filter3838);opacity:0.63218391"
   d="M 38.28125,3.71875 C 32.254975,3.9570362 26.121691,7.3354267 19.8125,15.125 L 19.84375,28.46875 L 17.90625,41.4375 L 14.0625,57.1875 L 17.59375,60.84375 C 19.329262,64.844498 24.181623,67.657383 27.46875,71.0625 L 26.6875,50.21875 L 29.84375,67.25 C 36.179183,65.559134 42.213424,65.289126 48,66.28125 L 49.375,58.59375 L 50.40625,72.96875 L 63,63.90625 C 57.210236,49.917273 60.419477,48.180029 59.65625,34.03125 C 59.281722,27.099124 58.906133,20.151585 58.53125,13.21875 C 51.804558,7.2203517 45.111028,3.4486924 38.28125,3.71875 z M 42.34375,18.53125 L 55.1875,30.4375 L 53.5625,44.78125 L 48.59375,48 L 48.625,48.34375 C 46.494259,46.884962 44.370626,45.845935 42.25,45.46875 C 41.934646,45.412766 41.58888,45.188553 41.3125,45.34375 C 38.345335,47.00875 39.182246,46.801674 36,45.4375 C 35.671181,45.297539 35.289352,45.521465 34.9375,45.59375 C 32.141122,46.16812 29.414429,47.906959 26.6875,50.15625 L 26.5,44.78125 L 25.0625,35.6875 L 25.0625,26.125 L 42.34375,18.53125 z"
   id="path3792"
   transform="matrix(0.2822222,0,0,0.2822222,0.3382436,0.1585061)" /><path
   style="fill:#996633;stroke:#000000;stroke-width:0.2"
   id="path2692"
   d="M 5.5909,4.2704 C 9.3895,-0.4195 12.9454,0.5442 16.5189,3.7308 C 16.6247,5.6874 16.7305,7.6444 16.8362,9.6008 C 17.0516,13.5939 16.146,14.0858 17.78,18.0338 L 14.2253,20.595 L 13.7158,13.5466 L 15.1189,12.6402 L 15.5744,8.5877 L 11.9472,5.2258 L 7.0749,7.3735 L 7.0749,10.0717 L 7.4796,12.6351 L 7.7494,20.0553 C 6.8217,19.0943 5.4559,18.3015 4.9661,17.1724 L 3.9719,16.1428 L 5.0512,11.6907 L 5.6047,8.0361 L 5.5909,4.2704 L 5.5909,4.2704 z"
   class="fil0 str0" /><path
   style="fill:#000000;fill-opacity:0.129412"
   id="path2694"
   d="M 11.9472,5.2258 L 7.0749,7.3735 L 7.0749,10.0717 L 7.4796,12.6351 L 7.7494,20.0553 C 6.8217,19.0943 5.4559,18.3015 4.9661,17.1724 L 3.9719,16.1428 L 5.0512,11.6907 L 5.6047,8.0361 L 5.5909,4.2704 C 7.3926,2.0459 9.14,1.0933 10.8602,1.0466 C 10.7497,1.8515 10.773,1.5149 10.7558,2.0503 C 11.4952,2.251 11.6349,3.9682 11.5763,4.5225 C 11.5404,4.8612 12.0793,4.9607 11.9472,5.2258 L 11.9472,5.2258 z"
   class="fil1" /><line
   style="fill:none;stroke:#000000;stroke-width:0.0847"
   id="line2696"
   y2="7.8740001"
   x2="16.086599"
   y1="5.1645999"
   x1="14.224"
   class="fil2 str1" /><polyline
   style="fill:none;stroke:#000000;stroke-width:0.0847"
   id="polyline2698"
   points="12.7846,4.4873 11.5146,3.6406 10.16,4.2333 "
   class="fil2 str1" /><path
   style="fill:none;stroke:#000000;stroke-width:0.05644444000000000;stroke-miterlimit:4;stroke-dasharray:none;filter:url(#filter3782)"
   id="path2700"
   d="M 9.017,3.5136 C 9.5491,3.3716 10.6934,2.7369 11.2606,2.7093 C 11.8505,2.6805 12.7322,3.4078 13.2926,3.6406"
   class="fil2 str1" /><path
   style="fill:#000000;fill-opacity:0.2"
   id="path2702"
   d="M 14.5216,20.3534 C 14.5365,20.327 14.2359,18.7679 14.224,18.4573 C 13.9912,17.1497 13.8314,15.147 13.6501,13.8275 C 13.5368,13.6502 13.5888,13.4146 13.7661,13.3013 C 13.9106,13.2089 14.0939,13.2264 14.2181,13.3321 C 16.1938,11.3001 14.8495,9.6275 15.2228,8.5183 C 14.3299,7.6431 12.8514,6.8287 12.0261,5.8636 C 11.8923,5.7012 11.9156,5.4611 12.078,5.3273 C 12.2404,5.1935 12.6508,4.8329 12.7846,4.9953 C 14.9897,7.7747 16.1002,7.0752 16.0866,9.144 C 16.0817,9.8846 15.9396,12.269 15.0634,13.5093 C 14.1215,14.8425 15.2585,20.6528 14.5216,20.3534 L 14.5216,20.3534 z"
   class="fil3" /><ellipse
   style="fill:#cce7d4;stroke:#000000;stroke-width:0.0847"
   sodipodi:ry="0.889"
   sodipodi:rx="0.50800002"
   sodipodi:cy="0"
   sodipodi:cx="0"
   cy="0"
   cx="0"
   id="ellipse2704"
   ry="0.889"
   rx="0.50800002"
   transform="matrix(-1.19455,-0.688706,-0.688706,1.19455,16.5195,11.3816)"
   class="fil4 str1" /><path
   style="fill:#cce7d4;stroke:#000000;stroke-width:0.1693"
   id="path2706"
   d="M 5.522,9.1622 C 5.8916,9.1005 6.2756,9.4879 6.4662,10.069 L 6.4772,10.0206 C 6.7837,10.1264 6.9977,10.0485 7.0749,9.7 L 7.0749,7.3735 L 11.9472,5.2258 L 15.5744,8.5877 L 15.6165,9.8278 C 17.0106,9.7916 17.0357,10.657 15.679,11.6551 L 15.5744,12.3652 L 13.4833,13.8494 L 11.6582,12.7983 L 11.1897,13.2422 L 10.16,12.8201 L 7.7212,14.0074 L 6.2837,11.792 C 6.1994,11.8805 6.0998,11.9381 5.9883,11.9568 C 5.5472,12.0304 5.0854,11.4644 4.9567,10.6927 C 4.8279,9.921 5.081,9.2358 5.522,9.1622 L 5.522,9.1622 z"
   class="fil4 str2" /><path
   style="fill:#000000;fill-opacity:0.129412"
   id="path2708"
   d="M 11.303,9.1863 C 11.3375,10.6319 11.374,10.1312 11.322,11.7203 L 11.3262,11.663 C 11.318,12.1851 11.2671,12.573 11.2535,13.0457 L 10.4915,13.0457 C 10.5114,12.42 10.6998,11.9267 10.7526,11.43 C 10.8077,10.9107 10.7269,10.3873 10.7103,9.6943 L 11.303,9.1863 L 11.303,9.1863 z"
   class="fil1" /><path
   style="fill:#ff0000;stroke:#000000;stroke-width:0.0847"
   id="path2710"
   d="M 8.5589,10.4765 C 9.3198,10.4765 10.6667,9.5494 10.6667,10.0902 C 10.6667,10.2654 10.5736,10.4895 10.4218,10.7124 C 10.4668,10.8178 10.4971,10.9981 10.4986,11.2055 C 10.4683,11.8467 10.4667,12.6744 10.3766,13.1774 L 10.3762,13.1774 C 10.1685,12.1331 10.2137,12.3628 10.1601,11.2367 C 10.1596,11.1624 10.1628,11.091 10.1691,11.0245 C 9.8473,11.3636 9.416,11.6378 9.0189,11.6378 C 8.744,11.6378 7.7938,11.7769 7.547,11.6233 C 7.1102,11.3511 7.1233,10.7246 7.1233,10.3791 C 7.1233,9.8383 7.798,10.4765 8.5589,10.4765 L 8.5589,10.4765 z"
   class="fil5 str1" /><path
   style="fill:#000000;fill-opacity:0.2"
   id="path2712"
   d="M 12.8342,8.7473 L 12.7485,8.7692 C 12.7598,8.7239 12.7793,8.7208 12.7789,8.676 C 12.4517,9.1463 12.4193,9.7989 12.6091,10.35 C 12.6985,10.4352 12.7464,10.5767 12.7372,10.6808 L 12.737,10.6812 C 12.5995,10.7402 12.5372,10.6205 12.4153,10.5915 L 12.4122,10.595 C 12.4159,10.6015 12.4243,10.6057 12.4338,10.6085 C 11.7403,10.453 11.5136,8.4063 12.513,7.8733 C 12.7543,7.7846 13.0219,7.9084 13.1106,8.1497 C 13.1993,8.391 13.0755,8.6586 12.8342,8.7473 L 12.8342,8.7473 z"
   class="fil3" /><path
   style="fill:#ff0000;stroke:#000000;stroke-width:0.0847"
   id="path2714"
   d="M 14.151,10.7529 C 13.4584,10.7529 12.2323,9.8258 12.2323,10.3667 C 12.2323,10.9075 13.0396,11.9142 13.7323,11.9142 C 13.9825,11.9142 14.8474,12.0534 15.0721,11.8997 C 15.4697,11.6276 15.4578,11.001 15.4578,10.6556 C 15.4578,10.1147 14.8437,10.7529 14.151,10.7529 z"
   class="fil5 str1" /><path
   style="fill:#990000"
   id="path2716"
   d="M 8.6943,10.138 C 9.4552,10.138 10.8022,9.2109 10.8022,9.7517 C 10.8022,10.2926 9.9152,11.2993 9.1543,11.2993 C 8.8795,11.2993 7.9293,11.4384 7.6825,11.2848 C 7.2457,11.0127 7.2588,10.3861 7.2588,10.0406 C 7.2588,9.4998 7.9334,10.138 8.6943,10.138 L 8.6943,10.138 z"
   class="fil6" /><path
   style="fill:#990000;stroke:#000000;stroke-width:0.07620000000000000;filter:url(#filter3646)"
   id="path2718"
   d="M 14.0277,10.4145 C 13.3351,10.4145 12.109,9.4874 12.109,10.0282 C 12.109,10.569 12.9163,11.5758 13.609,11.5758 C 13.8592,11.5758 14.7241,11.7149 14.9488,11.5613 C 15.3464,11.2891 15.3345,10.6626 15.3345,10.3171 C 15.3345,9.7763 14.7204,10.4145 14.0277,10.4145 L 14.0277,10.4145 z"
   class="fil6 str3" /><path
   style="fill:#000000;fill-opacity:0.129412"
   id="path2720"
   d="M 8.614,8.0872 C 8.5477,8.0843 8.4862,8.0683 8.4287,8.0416 L 8.4166,8.0546 C 8.3673,8.1416 8.3184,8.2043 8.2705,8.2466 C 8.3739,8.2265 8.48,8.1976 8.5882,8.1504 C 8.5948,8.128 8.6035,8.107 8.614,8.0872 z M 8.0052,8.2857 C 7.9625,8.2602 7.9226,8.2203 7.8861,8.1701 L 7.7872,8.316 C 7.8579,8.3035 7.9307,8.2948 8.0052,8.2857 L 8.0052,8.2857 z M 8.4568,7.3589 C 8.5312,7.4153 8.592,7.4694 8.6298,7.5039 C 8.697,7.4402 8.7696,7.3741 8.8477,7.3078 L 8.8271,7.2196 C 8.7082,7.273 8.5834,7.3195 8.4568,7.3589 z M 8.8523,6.7067 C 8.8877,6.6254 8.9406,6.5643 9.0071,6.5267 C 9.2254,6.571 9.511,6.5202 9.7022,6.4111 C 9.7743,6.38 9.8489,6.34 9.9118,6.2936 C 9.9802,6.2665 10.0443,6.2307 10.1026,6.1875 C 10.2254,6.1389 10.3308,6.064 10.4149,5.972 C 10.6821,5.9685 10.8243,5.8613 11.0345,5.7299 C 11.1213,5.698 11.3646,5.5576 11.433,5.5006 C 11.4789,5.4623 11.5189,5.4284 11.568,5.3949 C 11.6345,5.3613 11.6961,5.3192 11.7511,5.27 C 11.8577,5.4045 12.0042,5.5057 12.1728,5.5559 C 12.1132,5.6088 12.0367,5.6437 11.9512,5.6508 C 10.97,5.7197 11.6443,6.9026 10.7893,7.0019 C 11.417,7.2935 12.0143,7.9437 9.8153,7.7653 C 9.4839,7.7384 9.2574,8.4695 9.0512,8.4977 C 8.7844,8.7017 8.0506,8.7827 7.1859,9.4988 C 7.0189,9.637 6.8975,9.6929 6.8123,9.6868 C 7.0407,9.5221 7.1866,9.2646 7.1866,8.9778 L 7.1867,8.9778 L 7.1867,8.7449 C 7.1867,8.5111 7.0919,8.2994 6.9387,8.1462 L 7.1655,8.3719 C 7.1655,8.094 7.1947,7.8547 7.0409,7.6041 L 7.0713,7.517 C 7.1551,7.4893 7.2085,7.4509 7.2836,7.4178 C 7.4786,7.3588 7.6585,7.2089 7.7859,7.0492 C 8.2215,6.9714 8.5657,6.8483 8.8523,6.7067 L 8.8523,6.7067 z M 8.2299,7.8954 C 8.1954,7.8602 8.1623,7.8211 8.1303,7.7791 L 8.0899,7.8458 C 8.097,7.8848 8.1034,7.9272 8.1324,7.9767 C 8.1618,7.9555 8.1942,7.9281 8.2299,7.8954 L 8.2299,7.8954 z M 7.5153,7.6454 C 7.5013,7.6711 7.5012,7.6982 7.5017,7.7263"
   class="fil1" /><path
   style="fill:#ffffff;stroke:#000000;stroke-width:0.0762"
   id="path2722"
   d="M 9.017,7.3236 C 9.5906,7.2437 10.0514,7.586 10.414,8.0433 C 10.663,8.3574 10.9198,8.6874 10.9198,9.1273 C 10.9198,10.2076 10.044,11.0834 8.9636,11.0834 C 7.8832,11.0834 6.9432,10.13 7.0075,9.1273 C 7.0718,8.1246 8.0492,7.4583 9.017,7.3236 L 9.017,7.3236 z"
   class="fil7 str3" /><path
   style="fill:#ffffff;stroke:#000000;stroke-width:0.0762"
   id="path2728"
   d="M 13.8881,7.5759 C 14.8567,7.5759 15.6418,8.361 15.6418,9.3296 C 15.6418,10.2983 14.8567,11.0834 13.8881,11.0834 C 12.9194,11.0834 12.0135,10.2907 12.1343,9.3296 C 12.2004,8.8036 12.5682,8.2553 13.2864,7.6818 C 13.4424,7.5572 13.6768,7.5759 13.8881,7.5759 L 13.8881,7.5759 z"
   class="fil7 str3" /><line
   style="fill:none;stroke:#000000;stroke-width:0.0847"
   id="line2730"
   y2="13.2422"
   x2="11.1897"
   y1="8.9925003"
   x1="11.3921"
   class="fil2 str1" /><path
   style="fill:none;stroke:#000000;stroke-width:0.0847"
   id="path2732"
   d="M 6.6701,11.6907 L 6.674,11.5385 C 6.6757,11.4732 6.5841,10.9139 6.5841,10.9139 C 6.5331,10.9091 6.2504,10.9878 6.1134,10.9293 C 6.1017,10.8579 6.1258,10.7567 6.1062,10.6806 C 5.727,10.5813 6.2657,10.8927 5.5839,10.5515 L 5.5048,10.512 C 5.3885,10.4538 5.5058,10.4629 5.3756,10.436 C 5.3517,10.3826 5.4564,9.9657 5.4739,9.8287 C 5.5394,9.7892 5.8914,9.6671 5.8606,9.9367"
   class="fil2 str1" /><path
   style="fill:none;stroke:#000000;stroke-width:0.0762"
   id="path2734"
   d="M 16.6401,11.151 L 16.6713,11.1277 C 16.7247,11.0882 16.8239,10.9228 16.9123,11.1344 C 17.0215,11.3956 16.6623,11.4435 16.5132,11.4854 C 16.458,11.4263 16.3616,11.528 16.3179,11.5457 C 16.3148,11.5876 16.2783,11.7326 16.3202,11.7984 C 16.2844,11.8076 16.2027,11.7901 16.1816,11.7581"
   class="fil2 str3" /><path
   style="fill:none;stroke:#000000;stroke-width:0.07620000000000000;filter:url(#filter3614);opacity:0.54107281"
   id="path2740"
   d="M 7.2098,10.7462 C 7.7855,10.9876 7.7122,11.3283 8.5168,11.3227 C 8.6024,11.3221 8.5939,11.2995 8.6331,11.3565"
   class="fil2 str3" /><path
   style="fill:#996633;stroke:#000000;stroke-width:0.2"
   id="path2742"
   d="M 7.5349,14.1583 C 8.3045,13.5235 9.0707,13.0273 9.8599,12.8652 C 9.9592,12.8448 10.0672,12.7806 10.16,12.8201 C 11.0581,13.2051 10.8208,13.2682 11.6582,12.7983 C 11.7362,12.7545 11.8366,12.8179 11.9256,12.8337 C 12.7352,12.9777 13.5405,13.4537 14.3602,14.1191 L 13.5507,18.7063 C 11.9176,18.4263 10.2121,18.4988 8.4241,18.976 L 7.5349,14.1583 L 7.5349,14.1583 z"
   class="fil0 str0" /><path
   style="fill:#000000;fill-opacity:0.129412"
   id="path2744"
   d="M 10.8645,18.5676 C 10.068,18.6197 9.2551,18.7542 8.4241,18.976 L 7.5349,14.1583 C 8.3045,13.5235 9.0707,13.0273 9.8599,12.8652 C 9.9592,12.8448 10.0672,12.7806 10.16,12.8201 C 10.5861,13.0027 10.7567,13.113 10.9076,13.1282 L 10.6842,14.0433 C 10.2362,15.8391 10.979,15.8313 11.0111,17.414 C 11.0244,18.0756 11.2966,17.8498 10.9422,18.4884 L 10.9355,18.5308 C 10.9274,18.5829 10.9021,18.6043 10.8645,18.5676 L 10.8645,18.5676 z"
   class="fil1" /><path
   style="fill:#ffcccc;stroke:#000000;stroke-width:0.0762"
   id="path2746"
   d="M 8.6264,14.3215 C 10.5451,13.7439 12.1655,13.774 13.4497,14.4903 C 13.5794,14.5624 13.7536,14.6161 13.7195,14.76 L 13.2134,16.8849 C 13.1791,17.029 13.0917,17.151 12.9436,17.1547 L 9.065,17.2559 C 8.9168,17.2595 8.8218,17.1322 8.7952,16.9861 L 8.3567,14.5913 C 8.33,14.4452 8.4843,14.3644 8.6264,14.3215 L 8.6264,14.3215 z"
   class="fil9 str3" /><path
   style="fill:#000000;stroke:#000000;stroke-width:0.0762"
   id="path2748"
   d="M 8.8962,14.7938 C 10.7716,14.6271 11.6164,14.5546 12.9436,14.8612 C 13.0878,14.8945 13.2266,14.9841 13.2134,15.131 L 13.0784,16.6151 C 13.0652,16.7619 12.951,16.9235 12.8087,16.8849 C 11.6935,16.5828 10.4199,16.6129 9.0312,16.8849 C 8.8865,16.9133 8.7741,16.763 8.7614,16.6151 L 8.6264,15.0636 C 8.6137,14.9157 8.7485,14.8069 8.8962,14.7938 L 8.8962,14.7938 z"
   class="fil8 str3" /><path
   style="fill:url(#linearGradient2813);stroke:#000000;stroke-width:0.0847"
   id="path2750"
   d="M 9.2971,14.7584 L 10.9475,14.7584 L 10.9475,15.7703 C 10.9475,15.8304 10.8986,15.8794 10.8385,15.8794 L 9.426,15.8794 C 9.3551,15.8794 9.2971,15.8214 9.2971,15.7505 L 9.2971,14.7584 z"
   class="fil10 str1" /><path
   style="fill:url(#linearGradient2810);stroke:#000000;stroke-width:0.0847"
   id="path2752"
   d="M 9.4761,16.7308 C 9.8544,16.5849 10.2699,16.4937 10.7849,16.5476 L 10.7733,15.9623 C 10.7725,15.9167 10.7357,15.8794 10.6905,15.8794 L 9.5739,15.8794 C 9.52,15.8794 9.4761,15.9234 9.4761,15.9773 L 9.4761,16.7308 z"
   class="fil11 str1" /><path
   style="fill:url(#linearGradient2807);stroke:#000000;stroke-width:0.0847"
   id="path2754"
   d="M 12.2015,16.6826 C 11.8233,16.5366 11.3486,16.4937 10.8335,16.5476 L 10.8452,15.9623 C 10.846,15.9167 10.8828,15.8794 10.928,15.8794 L 12.0446,15.8794 C 12.0983,15.8794 12.1381,15.9237 12.1424,15.9773 L 12.2015,16.6826 L 12.2015,16.6826 z"
   class="fil12 str1" /><path
   style="fill:url(#linearGradient2804);stroke:#000000;stroke-width:0.0847"
   id="path2756"
   d="M 13.0058,16.8142 C 12.8207,16.6682 12.5885,16.6253 12.3365,16.6792 L 12.3422,16.0939 C 12.3426,16.0483 12.3606,16.0111 12.3827,16.0111 L 12.929,16.0111 C 12.9553,16.0111 12.9747,16.0554 12.9768,16.1089 L 13.0058,16.8142 z"
   class="fil12 str1" /><path
   style="fill:url(#linearGradient2801);stroke:#000000;stroke-width:0.0847"
   id="path2758"
   d="M 8.8962,16.75 L 9.3787,16.7117 L 9.3684,16.0754 C 9.3677,16.0299 9.3306,15.9924 9.2855,15.9926 L 8.9247,15.9945 C 8.8712,15.9946 8.8213,16.0391 8.8269,16.0923 L 8.8962,16.75 z"
   class="fil13 str1" /><path
   style="fill:url(#linearGradient2798);stroke:#000000;stroke-width:0.0847"
   id="path2760"
   d="M 8.6938,15.1171 L 9.2971,14.7584 L 9.2971,15.8818 C 9.2971,15.914 9.2707,15.9405 9.2385,15.9405 L 8.7632,15.9405 C 8.7249,15.9405 8.6938,15.9094 8.6938,15.8712 L 8.6938,15.1171 z"
   class="fil14 str1" /><path
   style="fill:url(#linearGradient2795);stroke:#000000;stroke-width:0.0847"
   id="path2762"
   d="M 10.9475,14.7584 L 12.7038,14.9994 L 12.6896,15.852 C 12.6888,15.9119 12.6404,15.9612 12.5805,15.9612 L 11.1682,15.9612 C 11.0974,15.9612 11.0452,15.9029 11.0393,15.8323 L 10.9475,14.7584 z"
   class="fil15 str1" /><path
   style="fill:url(#linearGradient2792);stroke:#000000;stroke-width:0.0847"
   id="path2764"
   d="M 12.7038,14.9994 L 13.1458,14.9994 L 13.1458,16.0773 C 13.1458,16.1011 13.1265,16.1204 13.1028,16.1204 L 12.7546,16.1204 C 12.7266,16.1204 12.7038,16.0976 12.7038,16.0695 L 12.7038,14.9994 L 12.7038,14.9994 z"
   class="fil16 str1" /><line
   style="fill:none;stroke:#000000;stroke-width:0.0847"
   id="line2766"
   y2="16.256001"
   x2="15.4093"
   y1="12.6297"
   x1="15.5136"
   class="fil2 str1" /><line
   style="fill:none;stroke:#000000;stroke-width:0.0847"
   id="line2768"
   y2="14.478"
   x2="5.4186001"
   y1="11.8934"
   x1="5.6487002"
   class="fil2 str1" /><line
   style="fill:none;stroke:#000000;stroke-width:0.0847"
   id="line2770"
   y2="13.5466"
   x2="6.5193"
   y1="12.1556"
   x1="6.5197001"
   class="fil2 str1" /><path
   style="fill:#000000;fill-opacity:0.16078401"
   id="path2772"
   d="M 5.8912,10.0193 C 5.8025,10.0994 5.7209,10.1783 5.6385,10.2415 C 5.6566,10.4299 5.7451,10.6907 5.98,11.0812 C 6.4689,11.297 6.553,10.8295 6.873,11.7905 C 7.6008,12.4732 6.7403,11.9333 8.1344,12.9969 L 8.1505,13.0107 C 8.9454,12.4313 9.1004,13.8287 8.7439,13.4087 C 9.259,13.0451 7.8886,13.9231 7.8892,13.9256 C 7.4176,13.8716 7.1268,12.8954 6.6463,12.2343 C 6.5684,12.1272 6.4789,12.0302 6.3799,11.9402 C 6.321,11.8868 6.2532,11.8348 6.1963,11.786 C 5.3258,11.7079 4.9347,11.2077 4.8723,10.4676 C 4.8131,10.3128 4.7981,10.0796 4.8216,9.8449 L 4.7587,9.824 C 4.7846,9.7802 4.8121,9.738 4.8414,9.6987 C 4.9284,9.1859 5.1978,8.7469 5.5879,9.2182 C 5.7038,9.2229 5.818,9.2707 5.9047,9.361 C 6.0828,9.5465 6.0767,9.8412 5.8912,10.0193 L 5.8912,10.0193 z"
   class="fil17" /><path
   style="fill:none;stroke:#000000;stroke-width:0.0847"
   id="path2774"
   d="M 15.2823,7.5776 C 15.8386,7.9588 16.1019,8.4728 15.8326,9.2286"
   class="fil2 str1" />
</svg>